<svg version="1" xmlns="http://www.w3.org/2000/svg" width="933.333" height="933.333" viewBox="0 0 700 700"><path d="M0 175v175h350v350h350V350H350V0H0v175zM140 32.4c62.3.8 62.5.8 68.9 6.1 3.8 3.3 6.2 7.7 11.2 21 2 5.5 5.8 15.2 8.4 21.5 2.6 6.3 5.9 14.9 7.5 19 5.1 13.4 23 59.4 24 61.5.5 1.1 5.4 13.9 11 28.5 5.5 14.6 10.5 27.4 10.9 28.5.5 1.1 1.4 3.6 2.1 5.5.7 1.9 1.8 4.8 2.5 6.5 1.6 3.8 35 90.8 38.1 99.4 1.3 3.5 2.1 6.7 1.9 7.1-.2.3-14.2.6-31.2.6l-30.8-.1-3.2-9c-1.7-5-7-20-11.8-33.5-4.7-13.5-9.1-25.8-9.8-27.4l-1.3-2.9-39 .2c-21.4.2-51.7.4-67.3.5l-28.3.2-9.5 25.9c-5.2 14.3-11.2 30.5-13.2 36l-3.7 10H49.2c-15.4 0-28.4-.3-28.7-.7-.4-.3 2.6-9.1 6.5-19.5 4-10.3 8.2-21.5 9.5-24.8 1.2-3.3 6.3-16.8 11.4-30 5.2-13.2 10.4-26.7 11.6-30 1.3-3.3 9.4-24.2 18-46.5 16.8-43.4 27.9-72.2 35.1-91.5 2.5-6.6 5.2-13 5.9-14.2.8-1.2 1.7-3.9 2.1-6 .5-3.3.2-4.4-2-7-4.5-5.4-12-7.2-30.6-7.3-8.4-.1-8.4.1-8.4-14.9-.1-14.7-.7-13.8 8.4-13.4 2.5.1 25.9.4 52 .7zm405 334.9c1.4.3 5 .8 8 1.2 8.2 1.1 23 5.1 32.4 8.8 15.9 6.3 29.4 15.2 42.4 27.8 13.7 13.4 19.2 21.6 25.7 37.9 2 5.2 4.1 10.4 4.5 11.5 3.4 8.3 6 15.6 6.6 19 .5 2.2.9 4.2.9 4.5.1.3.5 2.5.9 5 .5 2.5 1 5.3 1.2 6.3 1.7 9.5 2.3 53.9.9 69.2-.8 9.1-3 19.9-6.1 30.5-3.1 10.4-3.7 11.9-9.7 24.3-6 12.6-12 21-22.7 31.8-28.1 28.7-61.9 41.2-109 40.4-9.6-.1-18.8-.6-20.5-.9-1.6-.3-6.5-1.3-10.8-2.1-41-8.1-75.5-35.1-92.2-72.1-3.8-8.4-4.8-11-6-14.9-.2-.6-1-3-1.9-5.5-2-5.9-5.4-20.2-6.1-26-4.1-32-3.9-52.8.6-79.5 1.8-10.1 6.4-25.9 10.4-35 .8-1.7 2.3-5.2 3.4-7.8 3-7 9.7-18.3 15-25.2 6.7-8.8 22.7-24.6 29.2-28.8 10.9-7.1 27.6-14.4 36.8-16.2 1.2-.2 3.1-.7 4.1-1 3.6-1.1 9.8-2.1 21.8-3.4 6.6-.7 35.3-.5 40.2.2z"/><path d="M171.5 86.5c-3.9 8.9-7.4 18-24.1 62.5-9.6 25.6-17.9 47.4-18.4 48.5-2.4 5.4-7.9 22.5-7.2 22.6 4.5.7 15.4.9 54.5 1.2 32.5.2 45.7-.1 45.7-.8 0-.6-1.4-4.9-3.1-9.6-1.7-4.6-6.6-18.5-10.9-30.9-11.6-33.3-26.3-75.1-30.8-87l-4-10.5-1.7 4zm346.3 325.1c-.2.1-2.3.5-4.8.9-19.3 2.8-40.1 17.4-53.4 37.3-7.8 11.9-13.9 29.9-16.1 47.7-.4 2.7-.9 6.1-1.2 7.5-.9 4.3-1.1 33.2-.3 39.5 1.5 11.1 2.2 16 2.6 16.6.2.3.6 1.9.8 3.5 2.3 12.3 10.5 32.1 17.6 42.1 10.3 14.8 24.8 25.8 39.3 30 6.5 1.9 10.5 2.3 21.6 2.4 15.3.1 19-.4 27.6-3.2 8.9-2.9 15.7-7.1 24.1-15.1 16-15.2 25.1-31.3 28.8-50.8.2-1.4 1.1-5.9 2-10 2.5-12.1 3.1-19.5 3.1-37 0-20.4-.9-27.2-5.1-41.9-9.2-31.7-27.1-54-51.5-64.3-3.7-1.6-9.2-3.3-12.1-3.9-4.8-1-22.4-2-23-1.3zM394.1 183.5 394 337l47.2-.5c47.2-.6 56.4-.8 75.3-2 10.5-.6 16.4-1.2 20.5-2 1.4-.3 3.9-.7 5.6-1 13.5-2.2 35.1-9.8 47.4-16.8 35.2-19.9 59.1-53.6 66.4-93.7.9-4.7 1.8-9.9 2.2-11.5.3-1.7.7-12 .9-23 .4-35.3-4.4-59.2-16.6-82.5-5.1-9.8-5.8-10.7-14.9-21.8-13.6-16.7-28.9-28.6-47-37-12-5.5-30.1-10.3-44-11.7-3-.4-6.6-.8-8-1-5.6-1-26.2-1.5-79.2-2l-55.7-.6v153.6zM507.5 75.4c2.2.3 5.1.8 6.5 1.1 1.4.2 3.9.7 5.6 1 12.5 2 31.1 9.6 40 16.2 26.8 20.1 38.6 47 38.5 88.3-.1 7.4-.3 14.6-.5 16-.2 1.4-.7 5.2-1.1 8.5-.9 8-4.7 20.6-8.5 28.5-11.6 23.9-30.1 40.4-54.2 48.4-15.9 5.3-28 6.7-59.3 6.9l-20 .1V183.9c-.1-58.5.1-107.1.3-108 .3-1.4 3.2-1.5 24.5-1.3 13.3.1 26 .5 28.2.8zM35.9 380v18.5l.1 4.5h3.9c7.7 0 17.4 4.9 19.3 9.9 1.4 3.6 1.6 30.7 1.7 154.6 0 124.6-.2 111.7 1.6 113.1 1.7 1.2 58.5 1.8 58.4.6-.1-.4-.1-31.2 0-68.5l.1-67.7h60c47.3 0 60 .3 60.1 1.2.1.7.2 31.4.3 68.3l.1 67 29.8.1 29.7.2.1-4.2c.3-15.4.4-300.4.1-301.4-.3-.9-7.2-1.2-29.8-1.2-27.3 0-29.4.1-29.5 1.7-.1 1-.2 29-.3 62.3l-.1 60.5-60.2.3-60.3.2v-4.1c0-2.3-.1-26.4-.3-53.8-.3-47.9-.4-49.8-2.4-54.3-2.4-5.3-7.3-9-14.2-10.8-2.7-.7-16.7-1.3-36.2-1.6L36 375l-.1 5z"/></svg>