<svg version="1" xmlns="http://www.w3.org/2000/svg" width="933.333" height="933.333" viewBox="0 0 700.000000 700.000000"><path d="M0 175v175h350v350h350V350H350V0H0v175zM140.5 32.4c27 .3 51.7.8 55 1.2 8.9.9 13.8 3.4 16.8 8.5 2.2 3.8 16.5 39.1 29.1 71.9 2 5.2 4.1 10.4 4.6 11.5 1 2.4 12.3 31.7 22.1 57.5 3.9 10.2 7.5 19.4 8 20.5.4 1.1 1.8 4.5 2.9 7.5 1.1 3 2.4 6.4 2.9 7.5.5 1.1 1.4 3.6 2.1 5.5.7 1.9 1.6 4.4 2.1 5.5 1.5 3.5 19.7 51 29 76 4.9 13.2 9.6 25.5 10.4 27.3.8 1.8 1.5 3.6 1.5 4.1 0 .4-14.1.7-31.2.7l-31.3-.1-3.2-9c-1.7-5-7-20-11.8-33.5-4.7-13.5-9.1-25.8-9.8-27.4l-1.3-2.9-39 .2c-21.4.2-51.7.4-67.3.5l-28.3.2-13.2 35.9-13.2 36H49.3c-15.5 0-28.5-.3-28.8-.7-.6-.6 5.2-16.6 25.6-69.3 6.1-16 12.2-31.7 13.4-35 1.3-3.3 13.2-34.1 26.5-68.5 26-67 34-88.1 34.6-91.8 1.4-7.6-5.5-10.7-26.3-11.7-16.5-.9-14.8.8-14.8-14.7 0-14.9-.3-14.5 7.8-14.1 2.3.1 26.3.4 53.2.7zM544 367.5c7.5.8 12 1.5 15.2 2.1 1.5.3 3 .5 3.3.5.2 0 4.2 1.1 8.7 2.3 24.4 6.9 42.5 18.1 62.6 39 8.4 8.7 9.9 10.9 14.8 21.2 6.6 13.9 10.7 24 14.4 35.4 3.9 12.1 4.7 17.2 5.7 37 1.1 22.2.5 55.4-1.2 63.9-4 20.2-14.5 47.8-21.5 56.6-1.7 2.1-4 5.4-5.2 7.3-1.1 1.8-3 4.4-4.2 5.6-1.2 1.2-4.3 4.6-6.9 7.4-15.2 16.4-44.6 32.4-65.6 35.8-1.4.2-3.7.7-5.1 1-1.3.3-4 .8-6 1-1.9.3-6.4.9-10 1.4-6.9.9-37.2.7-43-.4-24.8-4.3-40.6-10.3-58.9-22.4-9.9-6.5-27-23.1-32.6-31.6-9.7-14.9-21-42.2-23.1-56-.3-2.2-.7-4.3-.9-4.7-.2-.3-.7-3.2-1-6.5-.4-3.2-.8-6.1-1-6.4-.8-1.3-1.7-18.6-1.7-32 .1-14.4 2.1-36.4 4.3-45.7.6-2.6 1.2-5.7 1.4-6.8.8-5.5 10.1-28.7 16.3-40.5 4.7-9 8.8-14.4 20.8-27.6 19.6-21.7 46.5-34.2 79.4-37 4.1-.4 7.6-.7 7.7-.9.6-.4 28.2.3 33.3 1z"/><path d="M172 83.4c0 .2-5.9 15.8-13 34.7-16.4 43.1-32.5 86.3-35.6 95.2-1.9 5.6-2.1 6.9-.9 7.3.8.3 23.4.7 50.2.8l48.7.1 1.5 2.6 1.4 2.6 4.1-2.1c2.3-1.2 4.3-2.2 4.5-2.3.6-.3-9.8-12.9-15.9-19.1-.8-.9-3.1-6.3-5.2-12.1-2-5.8-5.2-15.3-7.2-21.1-2-5.8-4.1-11.4-4.6-12.5-.5-1.1-1.3-3.6-1.9-5.5-.5-1.9-1.9-6-3-9s-5.7-15.9-10.1-28.5C174.2 83.9 173.9 83 172.9 83c-.5 0-.9.2-.9.4zm58.1 136.8c.7 1.3.3 2-2.1 3.2-2.8 1.4-3.1 1.3-4.1-.6-.9-1.6-.8-1.9.3-1.2.7.4.5-.2-.4-1.3-1-1.1-1.8-2.6-1.8-3.4 0-.8-.6-2.5-1.3-3.9-3.1-6-2.3-6.1 2.9-.5 3 3.3 5.9 6.8 6.5 7.7zM515.5 412.1c-22 3.1-41.7 16.4-55.9 37.8-11.9 17.9-18.1 43.6-18 75.1 0 22.2 2.1 37 7.6 53.4 7.8 23.4 20.3 40.5 37.5 51.2 12.4 7.8 18 9.2 36.7 9.3 18.7.2 24.7-.7 33.6-5.1 12.3-6 21.4-14 32-28.3 9-12 9.5-13.2 14-31 4.9-19.1 6.9-33.9 6.8-50.9-.1-37.9-11.2-69.3-31.7-89.6-17.7-17.4-39.5-25.1-62.6-21.9zM394.1 103.2v145.3c0 39.6-.1 75.7-.1 80.3l-.1 8.3 45.8-.6c63.6-.8 80.2-1.4 89.3-3 1.4-.3 4.4-.7 6.7-1 2.3-.2 6.4-1 9-1.6 2.6-.6 5.6-1.2 6.6-1.4 13.6-2.8 36.8-12.5 46.8-19.6 21.6-15.3 35.4-30.8 45.8-51.7 4.6-9 10.3-24.8 11.6-31.7.3-1.7 1.3-6.6 2.1-11 2.1-10.8 2.5-45.5.8-59.5-5.5-42.7-21.5-71.1-55.2-97.7-16.4-13-43.7-22.7-72.7-25.8-8.9-1-22.6-1.3-82.2-2l-54.2-.6v73.3zm111.4-27.9c1.1.3 4.5.8 7.6 1.1 3.1.4 7.1 1.1 8.8 1.6 1.7.5 3.1.7 3.1.5 0-1 21 6.9 26 9.7 10.5 5.9 21.9 15.9 29.2 25.8 9.1 12.4 15.3 31.1 17.4 52.5 1.2 12.6.8 26-1.2 40.8-2.7 20.1-14.5 42.7-29.3 56.5-12.4 11.5-31.4 20.8-48.7 23.8-1.3.2-3.6.6-5.1.9-5.1.8-25.9 1.7-42.3 1.8h-16.5V183.9c-.1-58.5.1-107.1.3-108 .3-1.4 3.2-1.5 24.5-1.3 13.3.1 25.1.4 26.2.7zM35.9 380c0 2.7-.1 6.8-.1 9s.1 6.2.1 8.8l.1 4.8 7.6 1.1c7.8 1.1 11.2 2.8 14.6 7.4 2.5 3.3 2.6 9.2 3 154.5l.2 116.2h29.8c16.3 0 29.7-.3 29.7-.6-.1-.4-.1-31.2 0-68.5l.1-67.7h60c47.3 0 60 .3 60.1 1.2.1.7.2 31.4.3 68.3l.1 67 29.8.1 29.7.2.1-4.7c.1-6.3.1-148.4 0-232.9L301 375h-29.5c-27.4 0-29.5.1-29.6 1.7-.1 1-.2 29-.3 62.3l-.1 60.5-60.2.3-60.3.2v-27.7c0-40.9-.7-77.4-1.5-80.8-1-4.6-5.7-10.8-9.5-12.7-4.8-2.3-10.1-2.7-44.2-3.4l-29.8-.5-.1 5.1z"/></svg>